<svg width="2600" height="1024" viewBox="0 0 2600 1024" fill="none" xmlns="http://www.w3.org/2000/svg">
  <g transform="translate(64 0)">
    <mask id="lockup-symbol-mask" maskUnits="userSpaceOnUse" x="0" y="0" width="1024" height="1024">
      <rect width="1024" height="1024" fill="black"/>
      <path d="M246 372C246 296.889 306.889 236 382 236H642C717.111 236 778 296.889 778 372V648C778 723.111 717.111 784 642 784H382C306.889 784 246 723.111 246 648V372Z" fill="white"/>
      <polygon points="594,220 794,220 794,420" fill="black"/>
      <path d="M390 368H634L586 454H556V678C556 702.301 536.301 722 512 722C487.699 722 468 702.301 468 678V454H438L390 368Z" fill="black"/>
    </mask>
    <rect width="1024" height="1024" fill="#111111" mask="url(#lockup-symbol-mask)"/>
  </g>
  <text x="1060" y="592" fill="#111111" font-family="system-ui, -apple-system, BlinkMacSystemFont, 'Segoe UI', sans-serif" font-size="248" font-weight="600" letter-spacing="-6">Treadstone</text>
</svg>
